<?xml version="1.0" encoding="UTF-8"?>
<svg version="1.1" xmlns="http://www.w3.org/2000/svg" width="303" height="256">
<path d="M0 0 C99.99 0 199.98 0 303 0 C303 84.48 303 168.96 303 256 C203.01 256 103.02 256 0 256 C0 171.52 0 87.04 0 0 Z " fill="#FDFDFE" transform="translate(0,0)"/>
<path d="M0 0 C1.59191673 0.57958606 3.18436151 1.15772393 4.77734375 1.734375 C8.64952341 3.13961518 12.51401532 4.56430173 16.375 6 C14.2278156 11.08996264 10.18118209 12.20364517 5.34179688 14.1796875 C3.19618602 15.08926488 3.19618602 15.08926488 0.375 17 C-0.67370753 20.11105711 -0.67370753 20.11105711 -0.625 23 C-3.265 21.68 -5.905 20.36 -8.625 19 C-7.7175 19.639375 -6.81 20.27875 -5.875 20.9375 C-1.09711678 24.99077534 1.00725688 29.82253421 1.72265625 36.00390625 C1.95131356 43.94726229 0.7529994 48.72221704 -3.9375 55.1875 C-8.47574624 59.93682746 -12.60638779 62.67551578 -19.140625 63.203125 C-27.41577324 63.34498468 -33.28944218 62.48900759 -39.4375 56.6875 C-43.32565472 52.7254611 -45.46663296 48.81556505 -45.953125 43.23828125 C-45.92734375 41.94277344 -45.9015625 40.64726563 -45.875 39.3125 C-45.85179687 37.35763672 -45.85179687 37.35763672 -45.828125 35.36328125 C-45.625 32 -45.625 32 -44.625 29 C-44.40174186 26.94106379 -44.21794241 24.87766347 -44.0625 22.8125 C-43.97871094 21.72582031 -43.89492187 20.63914062 -43.80859375 19.51953125 C-43.74800781 18.68808594 -43.68742187 17.85664062 -43.625 17 C-44.34042969 16.72414063 -45.05585938 16.44828125 -45.79296875 16.1640625 C-48.58238855 15.01751478 -51.24790358 13.73772885 -53.9375 12.375 C-54.82050781 11.92898437 -55.70351562 11.48296875 -56.61328125 11.0234375 C-57.27714844 10.68570313 -57.94101563 10.34796875 -58.625 10 C-58.6520817 12.72923388 -58.67187847 15.45819637 -58.6875 18.1875 C-58.69587891 18.95642578 -58.70425781 19.72535156 -58.71289062 20.51757812 C-58.72991934 24.48526789 -58.61104115 28.12571234 -57.625 32 C-58.285 32 -58.945 32 -59.625 32 C-59.625 31.34 -59.625 30.68 -59.625 30 C-60.285 30 -60.945 30 -61.625 30 C-61.295 22.08 -60.965 14.16 -60.625 6 C-53.47853852 3.14141541 -46.36222306 0.35193106 -39.125 -2.25 C-38.15691406 -2.61351562 -37.18882812 -2.97703125 -36.19140625 -3.3515625 C-22.4773416 -8.24812787 -13.11651536 -4.88488429 0 0 Z " fill="#F5A624" transform="translate(176.625,30)"/>
<path d="M0 0 C30.37043871 1.5574584 61.26029344 9.64836096 83 32 C86.76986075 36.32753246 89.63670837 40.74824083 92 46 C92.42410156 45.29875 92.84820312 44.5975 93.28515625 43.875 C107.59507151 20.72753267 129.98623539 9.47396076 155.91503906 3.30664062 C158.81171896 2.68048767 161.71150344 2.10478404 164.625 1.5625 C165.50027344 1.39854736 166.37554687 1.23459473 167.27734375 1.06567383 C173.55038945 0.00132645 179.64573237 -0.17097706 186 0 C182.87565444 1.63183167 180.22381522 2.42183736 176.75 3.0625 C154.00685874 8.15079601 128.11150853 18.51432975 114 38 C111.79852408 41.57540909 109.86617957 45.24043707 108 49 C107.63003906 49.69480469 107.26007813 50.38960937 106.87890625 51.10546875 C102.19607428 60.52579611 100.34666631 71.63475019 99 82 C98.01 82 97.02 82 96 82 C96 83.32 96 84.64 96 86 C100.95 86 105.9 86 111 86 C111 87.32 111 88.64 111 90 C110.30132812 90.04898438 109.60265625 90.09796875 108.8828125 90.1484375 C107.51769531 90.26058594 107.51769531 90.26058594 106.125 90.375 C105.22007812 90.44460937 104.31515625 90.51421875 103.3828125 90.5859375 C100.82058097 90.79568132 100.82058097 90.79568132 99 93 C97.05260134 98.90944583 96.5982409 105.13359484 96.21875 111.3046875 C96.0977347 113.03906798 95.97663866 114.77344282 95.85546875 116.5078125 C95.67523566 119.2068648 95.49798202 121.90608696 95.32275391 124.60546875 C95.14963773 127.23493749 94.96591772 129.86350872 94.78125 132.4921875 C94.73222534 133.30154755 94.68320068 134.11090759 94.63269043 134.9447937 C94.36403976 138.7217447 94.1407627 140.78885595 92 144 C90.50006784 135.98607676 89.70576736 128.01527421 89.140625 119.890625 C89.07010925 118.88180771 88.99959351 117.87299042 88.92694092 116.83360291 C88.81856903 115.2829287 88.81856903 115.2829287 88.70800781 113.70092773 C86.19750353 70.42488842 86.19750353 70.42488842 66 33 C65.19755859 32.04287109 65.19755859 32.04287109 64.37890625 31.06640625 C48.44265348 13.48512094 22.05339306 7.02745469 0 1 C0 0.67 0 0.34 0 0 Z " fill="#F3A72A" transform="translate(62,72)"/>
<path d="M0 0 C0.33 0 0.66 0 1 0 C1.92932291 7.72150069 2.20596394 15.38015306 2.31640625 23.15234375 C2.33718735 24.40592178 2.35796844 25.65949982 2.37937927 26.95106506 C2.42246435 29.60270334 2.4639832 32.25430605 2.50268555 34.90600586 C2.56058815 38.86647188 2.62683037 42.82677849 2.69335938 46.78710938 C2.9634328 63.52578201 3.05853526 80.25930286 3 97 C3.75413681 96.98637421 4.50827362 96.97274841 5.28526306 96.95870972 C18.25803074 96.73439599 30.40794588 96.52537138 43 100 C43.6796582 100.17692383 44.35931641 100.35384766 45.05957031 100.53613281 C54.85296163 103.09150621 63.98906603 106.31523972 73 111 C73.99386719 111.51175781 74.98773438 112.02351563 76.01171875 112.55078125 C85.78145036 117.90178458 94.24111565 125.03595285 102 133 C101.67 133.66 101.34 134.32 101 135 C100.09121094 134.35933594 99.18242187 133.71867188 98.24609375 133.05859375 C89.51038978 127.00637601 80.76388615 122.17174059 71 118 C70.15308594 117.61199219 69.30617188 117.22398437 68.43359375 116.82421875 C47.33461942 107.57779853 23.24490185 106.845531 0.64453125 108.51049805 C-0.60352295 108.60179489 -1.85157715 108.69309174 -3.13745117 108.78715515 C-4.55441284 108.89251335 -4.55441284 108.89251335 -6 109 C-5.44472619 87.78842757 -4.44437243 66.63139999 -3.13537598 45.45391846 C-2.95214573 42.47093329 -2.77350369 39.4876803 -2.59492493 36.5044136 C-2.41962438 33.58043705 -2.2424666 30.65657549 -2.06466675 27.73274994 C-1.94175568 25.71063876 -1.81961884 23.68848057 -1.69750977 21.6663208 C-1.24967901 14.43089367 -0.7086457 7.21473023 0 0 Z " fill="#5FBCDF" transform="translate(45,84)"/>
<path d="M0 0 C0.33 0 0.66 0 1 0 C1.77689246 3.50567461 2.18001322 6.85539808 2.34130859 10.44067383 C2.41692268 12.05034531 2.41692268 12.05034531 2.49406433 13.6925354 C2.54500748 14.85231903 2.59595062 16.01210266 2.6484375 17.20703125 C2.76633976 19.72095573 2.88443004 22.2348714 3.00268555 24.7487793 C3.06338226 26.06615082 3.12407898 27.38352234 3.18661499 28.74081421 C4.17594275 50.19503338 5.31882178 71.62172964 7.08544922 93.02856445 C7.65994874 100.03395951 8.16734752 106.96343502 8 114 C6.61554688 113.89171875 6.61554688 113.89171875 5.203125 113.78125 C-30.74796227 111.22346513 -63.05863708 115.866782 -93.671875 135.86328125 C-96.09365213 137.41810765 -98.39218246 138.80804299 -101 140 C-82.70637408 117.3736732 -54.97149096 105.49190584 -26.4375 102.1875 C-21.18139598 101.92550095 -15.92119555 101.97918193 -10.66015625 101.98828125 C-9.73078247 101.9891272 -8.80140869 101.98997314 -7.84387207 101.99084473 C-5.56257902 101.99304321 -3.28129071 101.99612042 -1 102 C-1.00222061 101.41532455 -1.00444122 100.83064911 -1.00672913 100.22825623 C-1.12742435 66.80293405 -0.89123337 33.41414054 0 0 Z " fill="#61BCDF" transform="translate(262,79)"/>
<path d="M0 0 C0.33 0 0.66 0 1 0 C2.27176747 10.30738014 3.36994363 20.60504007 4.20492554 30.95751953 C5.06274669 41.57461478 5.99486772 52.1811145 7.08203125 62.77734375 C7.1737561 63.67381119 7.26548096 64.57027863 7.35998535 65.49391174 C7.80829417 69.85892656 8.26438137 74.22297858 8.72998047 78.58618164 C9.58573213 86.74988342 10.29842912 94.77661973 10 103 C8.75605469 102.73445313 7.51210938 102.46890625 6.23046875 102.1953125 C4.5494969 101.83845814 2.8685063 101.48169208 1.1875 101.125 C0.37345703 100.95097656 -0.44058594 100.77695313 -1.27929688 100.59765625 C-2.9797209 100.23756646 -4.68172104 99.88486031 -6.38500977 99.53857422 C-8.06968977 99.19160343 -9.75048567 98.82489927 -11.42553711 98.43408203 C-20.52139726 96.47837985 -29.67743392 96.60333288 -38.9375 96.625 C-39.80782867 96.62554382 -40.67815735 96.62608765 -41.57485962 96.62664795 C-54.48511027 96.66380317 -66.5489535 97.35678521 -79 101 C-80.75888188 101.4761209 -82.51800732 101.95134272 -84.27734375 102.42578125 C-92.32792087 104.66558011 -100.05252799 106.98607945 -107.3203125 111.21484375 C-107.87460938 111.47394531 -108.42890625 111.73304688 -109 112 C-109.66 111.67 -110.32 111.34 -111 111 C-94.50870654 99.81946206 -76.6163834 91.80487718 -57 88 C-56.05584229 87.81550293 -55.11168457 87.63100586 -54.13891602 87.44091797 C-45.79155467 85.97751652 -37.65296551 85.69050242 -29.20703125 85.73925781 C-27.00232459 85.74998869 -24.79843234 85.73928935 -22.59375 85.7265625 C-13.88787334 85.71926626 -5.5815986 86.36203401 3 88 C2.94465088 86.93305908 2.88930176 85.86611816 2.83227539 84.7668457 C1.38107477 56.51633099 0.49257364 28.28293741 0 0 Z " fill="#8E59F5" transform="translate(272,115)"/>
<path d="M0 0 C3.16384761 2.40727535 4.70458888 3.97742304 5.8125 7.8125 C5.874375 8.534375 5.93625 9.25625 6 10 C7.32 10 8.64 10 10 10 C10 11.32 10 12.64 10 14 C9.01 14 8.02 14 7 14 C7 20.27 7 26.54 7 33 C5.35 33 3.7 33 2 33 C2 26.73 2 20.46 2 14 C0.35 14 -1.3 14 -3 14 C-3.185625 15.670625 -3.185625 15.670625 -3.375 17.375 C-4 21 -4 21 -6 23 C-6.99 23 -7.98 23 -9 23 C-7.824375 24.1446875 -7.824375 24.1446875 -6.625 25.3125 C-4 28 -4 28 -2 31 C-3.32 31.66 -4.64 32.32 -6 33 C-7.29549899 31.90033225 -8.58626071 30.79508199 -9.875 29.6875 C-10.59429687 29.07261719 -11.31359375 28.45773438 -12.0546875 27.82421875 C-14 26 -14 26 -16 23 C-15.625 20.3125 -15.625 20.3125 -15 18 C-13.02 18 -11.04 18 -9 18 C-8.67 16.68 -8.34 15.36 -8 14 C-11.96 14 -15.92 14 -20 14 C-20 20.27 -20 26.54 -20 33 C-21.65 33 -23.3 33 -25 33 C-25 26.73 -25 20.46 -25 14 C-27.31 14 -29.62 14 -32 14 C-32 20.27 -32 26.54 -32 33 C-33.32 33 -34.64 33 -36 33 C-36 31.35 -36 29.7 -36 28 C-36.59167969 28.13019531 -37.18335938 28.26039063 -37.79296875 28.39453125 C-40.26536142 28.82609082 -42.48954313 29.10092289 -45 29 C-48.03907571 26.78400729 -49.56522438 25.23743831 -50.8125 21.6875 C-50.874375 21.130625 -50.93625 20.57375 -51 20 C-49.68 19.67 -48.36 19.34 -47 19 C-47 17.35 -47 15.7 -47 14 C-49.64 14 -52.28 14 -55 14 C-55 20.27 -55 26.54 -55 33 C-56.65 33 -58.3 33 -60 33 C-60 29.37 -60 25.74 -60 22 C-62.31 22.33 -64.62 22.66 -67 23 C-66.45276317 26.37462715 -65.9451 28.08235 -64 31 C-65.98 31.99 -65.98 31.99 -68 33 C-71.4113289 30.18565365 -72.88422065 28.83940026 -73.5 24.375 C-73 21 -73 21 -71.79296875 19.30078125 C-69.3685841 17.54191395 -67.77397684 17.69711779 -64.8125 17.8125 C-63.46091797 17.85310547 -63.46091797 17.85310547 -62.08203125 17.89453125 C-61.05142578 17.94673828 -61.05142578 17.94673828 -60 18 C-60 16.68 -60 15.36 -60 14 C-64.95 14 -69.9 14 -75 14 C-75 12.68 -75 11.36 -75 10 C-53.55 10 -32.1 10 -10 10 C-10.495 6.535 -10.495 6.535 -11 3 C-7.49239828 -0.36729765 -4.75893051 -0.66792007 0 0 Z " fill="#5F24D8" transform="translate(233,144)"/>
<path d="M0 0 C0.33 0 0.66 0 1 0 C1.19901612 16.82377235 0.62000226 33.62420806 0.07287598 50.43615723 C-0.04997789 54.23145679 -0.16935472 58.02686576 -0.2890625 61.82226562 C-0.52272322 69.21495225 -0.76010971 76.60751261 -1 84 C-0.37682892 83.85911453 0.24634216 83.71822906 0.88839722 83.57307434 C6.49621892 82.36825205 11.77870432 81.69183872 17.5078125 81.69921875 C18.27696991 81.69493362 19.04612732 81.6906485 19.83859253 81.68623352 C21.45358303 81.68054139 23.06859914 81.67995169 24.68359375 81.68432617 C27.09942636 81.68746675 29.51400715 81.66403012 31.9296875 81.63867188 C42.29200584 81.59577113 51.90861424 82.66913195 62 85 C62.9600293 85.21906006 63.92005859 85.43812012 64.90917969 85.66381836 C81.19645495 89.61229545 97.57878394 95.72249221 111 106 C110.01 106.495 110.01 106.495 109 107 C106.6759707 106.17321079 104.44980323 105.2849477 102.1875 104.3125 C69.29370024 90.765232 30.70883843 86.99968037 -3.48828125 98.23046875 C-6 99 -6 99 -9 99 C-8.57489348 90.36362535 -8.02567651 81.76052943 -7.12109375 73.16015625 C-6.27091247 64.86569138 -5.49255835 56.5661374 -4.74609375 48.26171875 C-4.58572632 46.48080338 -4.58572632 46.48080338 -4.42211914 44.66390991 C-3.98052341 39.75206567 -3.54041653 34.84009029 -3.10180664 29.92797852 C-2.77648499 26.28908122 -2.44892431 22.65039074 -2.12109375 19.01171875 C-2.02316025 17.90753098 -1.92522675 16.8033432 -1.82432556 15.66569519 C-1.35021404 10.41622974 -0.81443262 5.20802144 0 0 Z " fill="#8C55F7" transform="translate(35,119)"/>
<path d="M0 0 C4.03884885 -0.46963359 5.54121494 -0.35683282 8.8125 2.1875 C10.9882377 4.98487704 11.70197895 6.52308771 12 10 C12.99 10 13.98 10 15 10 C15 11.32 15 12.64 15 14 C14.01 14 13.02 14 12 14 C12 20.27 12 26.54 12 33 C10.35 33 8.7 33 7 33 C7 26.73 7 20.46 7 14 C5.35 14 3.7 14 2 14 C2 20.27 2 26.54 2 33 C0.35 33 -1.3 33 -3 33 C-3 32.01 -3 31.02 -3 30 C-6.96 31.98 -6.96 31.98 -11 34 C-11.66 32.68 -12.32 31.36 -13 30 C-11.71086513 29.32845067 -10.41859796 28.66291141 -9.125 28 C-8.40570313 27.62875 -7.68640625 27.2575 -6.9453125 26.875 C-5 26 -5 26 -3 26 C-3 25.34 -3 24.68 -3 24 C-5.64 24 -8.28 24 -11 24 C-11 24.99 -11 25.98 -11 27 C-15.75 26.25 -15.75 26.25 -18 24 C-17.625 21.875 -17.625 21.875 -17 20 C-16.34 20 -15.68 20 -15 20 C-15 18.02 -15 16.04 -15 14 C-17.31 14 -19.62 14 -22 14 C-22 20.27 -22 26.54 -22 33 C-23.65 33 -25.3 33 -27 33 C-27 26.73 -27 20.46 -27 14 C-28.98 14 -30.96 14 -33 14 C-33 15.98 -33 17.96 -33 20 C-36.63 20 -40.26 20 -44 20 C-44 20.99 -44 21.98 -44 23 C-43.07767578 22.94779297 -43.07767578 22.94779297 -42.13671875 22.89453125 C-41.32847656 22.86746094 -40.52023438 22.84039062 -39.6875 22.8125 C-38.48673828 22.76029297 -38.48673828 22.76029297 -37.26171875 22.70703125 C-35 23 -35 23 -33.23046875 24.35546875 C-32 26 -32 26 -31.625 28.5 C-32 31 -32 31 -33.3125 32.8125 C-35 34 -35 34 -38 34 C-37.67 31.69 -37.34 29.38 -37 27 C-39.31 27.33 -41.62 27.66 -44 28 C-43.72965366 30.43717258 -43.72965366 30.43717258 -43 33 C-42.01 33.66 -41.02 34.32 -40 35 C-40.66 36.32 -41.32 37.64 -42 39 C-45.41314276 37.58766506 -47.14473938 36.20881695 -49 33 C-49.29238864 30.35703598 -49.42038998 28.00761906 -49.375 25.375 C-49.38660156 24.694375 -49.39820312 24.01375 -49.41015625 23.3125 C-49.3984375 21.3359375 -49.3984375 21.3359375 -49 18 C-45.91111478 15.94074319 -45.29064073 15.7609626 -41.8125 15.875 C-39.9253125 15.936875 -39.9253125 15.936875 -38 16 C-38 15.34 -38 14.68 -38 14 C-42.29 14 -46.58 14 -51 14 C-51 12.68 -51 11.36 -51 10 C-31.86 10 -12.72 10 7 10 C6.34 8.35 5.68 6.7 5 5 C2.45224694 4.10613836 2.45224694 4.10613836 0 4 C0 2.68 0 1.36 0 0 Z " fill="#22BDD8" transform="translate(134,144)"/>
<path d="M0 0 C0.33 0 0.66 0 1 0 C1.19901612 16.82377235 0.62000226 33.62420806 0.07287598 50.43615723 C-0.04997789 54.23145679 -0.16935472 58.02686576 -0.2890625 61.82226562 C-0.52272322 69.21495225 -0.76010971 76.60751261 -1 84 C-0.37682892 83.85911453 0.24634216 83.71822906 0.88839722 83.57307434 C6.49621892 82.36825205 11.77870432 81.69183872 17.5078125 81.69921875 C18.27696991 81.69493362 19.04612732 81.6906485 19.83859253 81.68623352 C21.45358303 81.68054139 23.06859914 81.67995169 24.68359375 81.68432617 C27.09942636 81.68746675 29.51400715 81.66403012 31.9296875 81.63867188 C42.27783189 81.5986488 51.91196306 82.70505408 62 85 C62 85.33 62 85.66 62 86 C60.39592672 86.02708567 58.7917215 86.04643483 57.1875 86.0625 C55.84751953 86.07990234 55.84751953 86.07990234 54.48046875 86.09765625 C52 86 52 86 49 85 C47.29716578 84.91229823 45.59107252 84.88234607 43.88598633 84.88647461 C42.32470757 84.88658791 42.32470757 84.88658791 40.73188782 84.88670349 C39.60993515 84.89186478 38.48798248 84.89702606 37.33203125 84.90234375 C36.18208176 84.9037587 35.03213226 84.90517365 33.84733582 84.90663147 C30.16903092 84.91223571 26.49078655 84.92478896 22.8125 84.9375 C20.32096442 84.94251445 17.82942789 84.94707745 15.33789062 84.95117188 C9.22523971 84.96220653 3.11262418 84.97894882 -3 85 C-3 83.68 -3 82.36 -3 81 C-3.99 81.495 -3.99 81.495 -5 82 C-4.15198296 87.05462789 -0.88485348 89.89211722 3 93 C5.75145037 94.02649583 5.75145037 94.02649583 8 94 C5.03799949 95.974667 2.90228368 96.71955354 -0.5 97.625 C-1.93859375 98.01558594 -1.93859375 98.01558594 -3.40625 98.4140625 C-6 99 -6 99 -9 99 C-8.57489348 90.36362535 -8.02567651 81.76052943 -7.12109375 73.16015625 C-6.27091247 64.86569138 -5.49255835 56.5661374 -4.74609375 48.26171875 C-4.58572632 46.48080338 -4.58572632 46.48080338 -4.42211914 44.66390991 C-3.98052341 39.75206567 -3.54041653 34.84009029 -3.10180664 29.92797852 C-2.77648499 26.28908122 -2.44892431 22.65039074 -2.12109375 19.01171875 C-2.02316025 17.90753098 -1.92522675 16.8033432 -1.82432556 15.66569519 C-1.35021404 10.41622974 -0.81443262 5.20802144 0 0 Z " fill="#8B59EF" transform="translate(35,119)"/>
<path d="M0 0 C0.33 0 0.66 0 1 0 C1.92932291 7.72150069 2.20596394 15.38015306 2.31640625 23.15234375 C2.33718735 24.40592178 2.35796844 25.65949982 2.37937927 26.95106506 C2.42246435 29.60270334 2.4639832 32.25430605 2.50268555 34.90600586 C2.56058815 38.86647188 2.62683037 42.82677849 2.69335938 46.78710938 C2.9634328 63.52578201 3.05853526 80.25930286 3 97 C3.75413681 96.98637421 4.50827362 96.97274841 5.28526306 96.95870972 C30.44935424 96.5235943 30.44935424 96.5235943 43 100 C44.10722412 100.29729004 44.10722412 100.29729004 45.23681641 100.60058594 C59.43340135 104.43340135 59.43340135 104.43340135 62 107 C55.85438144 106.12205449 49.96671256 104.44350653 43.98828125 102.81640625 C42.77205078 102.48962891 42.77205078 102.48962891 41.53125 102.15625 C40.80486328 101.95837891 40.07847656 101.76050781 39.33007812 101.55664062 C34.32125391 100.36006485 29.50399914 99.86295231 24.359375 99.75390625 C23.12445313 99.72103516 21.88953125 99.68816406 20.6171875 99.65429688 C18.02353545 99.59273039 15.42977736 99.53548946 12.8359375 99.48242188 C11.60617188 99.44826172 10.37640625 99.41410156 9.109375 99.37890625 C7.42279785 99.34132202 7.42279785 99.34132202 5.70214844 99.30297852 C3 99 3 99 1 97 C0.78881836 95.13427734 0.78881836 95.13427734 0.83984375 92.8359375 C0.85144531 91.97178223 0.86304688 91.10762695 0.875 90.21728516 C0.895625 89.27933105 0.91625 88.34137695 0.9375 87.375 C1.04118306 78.773626 0.88814538 70.21844828 0.5 61.625 C0.42833618 60.03824463 0.42833618 60.03824463 0.35522461 58.41943359 C0.24052409 55.94608824 0.12244372 53.47297231 0 51 C-1.64799035 52.64799035 -1.20599656 54.6128005 -1.28125 56.8828125 C-1.33732422 58.38714844 -1.33732422 58.38714844 -1.39453125 59.921875 C-1.42933594 60.97890625 -1.46414062 62.0359375 -1.5 63.125 C-1.71405576 69.48324881 -1.93280667 75.72134593 -3 82 C-3.33 82 -3.66 82 -4 82 C-4.20324596 66.20670852 -3.60092903 50.5694271 -2.5625 34.8125 C-2.42583638 32.64521979 -2.28976676 30.47790203 -2.15429688 28.31054688 C-1.55516405 18.85973002 -0.89777336 9.42786731 0 0 Z " fill="#72B9D4" transform="translate(45,84)"/>
<path d="M0 0 C0.33 0 0.66 0 1 0 C2.30340495 10.53496585 3.4076796 21.06299143 4.26205444 31.64361572 C5.32624498 44.7992987 6.55275985 57.9202236 8.08569336 71.03051758 C8.77262895 77.06992238 9.1338112 82.92114824 9 89 C7.20897231 85.64417969 6.64733733 83.06272266 6.375 79.25 C6.30023438 78.26515625 6.22546875 77.2803125 6.1484375 76.265625 C6.09945313 75.51796875 6.05046875 74.7703125 6 74 C6.01160156 74.66386719 6.02320313 75.32773438 6.03515625 76.01171875 C6.12478032 84.78207381 6.12478032 84.78207381 5 89 C3.02 89 1.04 89 -1 89 C0.98 88.505 0.98 88.505 3 88 C2.91697632 86.39958862 2.91697632 86.39958862 2.83227539 84.7668457 C1.38107477 56.51633099 0.49257364 28.28293741 0 0 Z " fill="#8D62E1" transform="translate(272,115)"/>
<path d="M0 0 C1.98 0 3.96 0 6 0 C6 6.27 6 12.54 6 19 C7.65 19 9.3 19 11 19 C11 12.73 11 6.46 11 0 C13.31 0 15.62 0 18 0 C18 1.98 18 3.96 18 6 C17.67 6 17.34 6 17 6 C17 4.35 17 2.7 17 1 C15.35 1 13.7 1 12 1 C12.00785522 1.85549438 12.00785522 1.85549438 12.01586914 2.72827148 C12.03658221 5.29800323 12.0496419 7.86771747 12.0625 10.4375 C12.07087891 11.33533203 12.07925781 12.23316406 12.08789062 13.15820312 C12.09272461 14.43920898 12.09272461 14.43920898 12.09765625 15.74609375 C12.10551147 16.93223267 12.10551147 16.93223267 12.11352539 18.14233398 C12 20 12 20 11 21 C8.625 21.25 8.625 21.25 6 21 C4.1875 19.5 4.1875 19.5 3 18 C2.443125 18.495 1.88625 18.99 1.3125 19.5 C-1.38162983 21.24754367 -2.85375007 21.26218749 -6 21 C-6 22.32 -6 23.64 -6 25 C-6.99 24.67 -7.98 24.34 -9 24 C-8.67 23.01 -8.34 22.02 -8 21 C-9.0209375 20.13375 -9.0209375 20.13375 -10.0625 19.25 C-10.701875 18.5075 -11.34125 17.765 -12 17 C-11.75 14.75 -11.75 14.75 -11 13 C-8.69 13 -6.38 13 -4 13 C-4.33 15.31 -4.66 17.62 -5 20 C-2.40858714 18.8624438 -2.40858714 18.8624438 0 17 C0.58350505 14.45709375 0.58350505 14.45709375 0 12 C-2.39763185 9.60236815 -3.33273498 9.65719414 -6.625 9.375 C-7.44226563 9.30023438 -8.25953125 9.22546875 -9.1015625 9.1484375 C-9.72804688 9.09945312 -10.35453125 9.05046875 -11 9 C-11 8.01 -11 7.02 -11 6 C-7.37 6 -3.74 6 0 6 C0 4.02 0 2.04 0 0 Z " fill="#DEFCFE" transform="translate(101,158)"/>
<path d="M0 0 C0.33 0 0.66 0 1 0 C1.43165121 5.5314878 1.8587334 11.06330325 2.28173828 16.59545898 C2.42601592 18.47413459 2.57150264 20.35271778 2.71826172 22.23120117 C2.93000559 24.94425951 3.13727873 27.65762966 3.34375 30.37109375 C3.40937134 31.19959335 3.47499268 32.02809296 3.54260254 32.88169861 C3.94708757 38.27025445 4.05685844 43.59607928 4 49 C3.07703125 48.9278125 2.1540625 48.855625 1.203125 48.78125 C-14.90294046 47.63536392 -30.90769705 47.63459248 -47 49 C-47 48.34 -47 47.68 -47 47 C-46.15695313 46.93941406 -45.31390625 46.87882812 -44.4453125 46.81640625 C-43.34960938 46.73261719 -42.25390625 46.64882812 -41.125 46.5625 C-40.03445312 46.48128906 -38.94390625 46.40007812 -37.8203125 46.31640625 C-35.05271029 46.16998297 -35.05271029 46.16998297 -33 45 C-29.73535352 44.75661388 -26.4601921 44.81477745 -23.1875 44.8125 C-22.30384766 44.80025391 -21.42019531 44.78800781 -20.50976562 44.77539062 C-12.98564336 44.75916319 -6.65766701 45.82189738 1 47 C0.67 31.49 0.34 15.98 0 0 Z " fill="#7BBDD7" transform="translate(266,144)"/>
<path d="M0 0 C0.33 0 0.66 0 1 0 C1.1835158 16.24752034 0.60552781 32.45305553 0 48.6875 C-0.0970542 51.34698027 -0.19302392 54.00649833 -0.2890625 56.66601562 C-0.52245945 63.11081192 -0.75967656 69.55545847 -1 76 C-1.33 76 -1.66 76 -2 76 C-2.33 67.09 -2.66 58.18 -3 49 C-3.33 49 -3.66 49 -4 49 C-3.34786745 32.60673683 -1.65399341 16.31587483 0 0 Z " fill="#8C6BCE" transform="translate(35,119)"/>
<path d="M0 0 C13.13016417 0.67334175 25.25981187 2.66487222 38 6 C38 6.33 38 6.66 38 7 C35.69 7 33.38 7 31 7 C31 7.66 31 8.32 31 9 C31.7425 9.144375 32.485 9.28875 33.25 9.4375 C35.52027739 9.90187492 37.75759479 10.41863569 40 11 C40 11.66 40 12.32 40 13 C40.99 13 41.98 13 43 13 C43 13.66 43 14.32 43 15 C38.57790734 13.56872726 34.26539399 11.94293014 29.9375 10.25 C20.16030728 6.49659212 10.09684151 3.74806101 0 1 C0 0.67 0 0.34 0 0 Z " fill="#EBAC43" transform="translate(62,72)"/>
<path d="M0 0 C0.33 0.66 0.66 1.32 1 2 C2.16015625 1.7834375 2.16015625 1.7834375 3.34375 1.5625 C9.32823915 0.49595738 14.92337435 -0.23371637 21 0 C21 0.33 21 0.66 21 1 C19.78828125 1.21914062 18.5765625 1.43828125 17.328125 1.6640625 C-5.83254821 5.94146466 -5.83254821 5.94146466 -27.3203125 15.21484375 C-28.15175781 15.60349609 -28.15175781 15.60349609 -29 16 C-29.66 15.67 -30.32 15.34 -31 15 C-24.72531956 10.74597936 -18.31809967 6.98970093 -11.5625 3.5625 C-10.87671875 3.20865234 -10.1909375 2.85480469 -9.484375 2.49023438 C-5.99987844 0.75485887 -3.96708118 0 0 0 Z " fill="#9166E5" transform="translate(192,211)"/>
<path d="M0 0 C0.33 0 0.66 0 1 0 C1 1.98 1 3.96 1 6 C2.27617188 5.67644531 3.55234375 5.35289062 4.8671875 5.01953125 C12.10197506 3.58046253 19.33600493 3.664424 26.68359375 3.68432617 C29.09942636 3.68746675 31.51400715 3.66403012 33.9296875 3.63867188 C44.27783189 3.5986488 53.91196306 4.70505408 64 7 C64 7.33 64 7.66 64 8 C62.39592672 8.02708567 60.7917215 8.04643483 59.1875 8.0625 C57.84751953 8.07990234 57.84751953 8.07990234 56.48046875 8.09765625 C54 8 54 8 51 7 C49.29716578 6.91229823 47.59107252 6.88234607 45.88598633 6.88647461 C44.32470757 6.88658791 44.32470757 6.88658791 42.73188782 6.88670349 C41.60993515 6.89186478 40.48798248 6.89702606 39.33203125 6.90234375 C38.18208176 6.9037587 37.03213226 6.90517365 35.84733582 6.90663147 C32.16903092 6.91223571 28.49078655 6.92478896 24.8125 6.9375 C22.32096442 6.94251445 19.82942789 6.94707745 17.33789062 6.95117188 C11.22523971 6.96220653 5.11262418 6.97894882 -1 7 C-1.625 4.625 -1.625 4.625 -2 2 C-1.34 1.34 -0.68 0.68 0 0 Z " fill="#936AE5" transform="translate(33,197)"/>
<path d="M0 0 C4.95 0 9.9 0 15 0 C15 1.32 15 2.64 15 4 C14.30132812 4.04898438 13.60265625 4.09796875 12.8828125 4.1484375 C11.97273437 4.22320312 11.06265625 4.29796875 10.125 4.375 C8.76761719 4.47941406 8.76761719 4.47941406 7.3828125 4.5859375 C4.82058097 4.79568132 4.82058097 4.79568132 3 7 C0.78063545 13.57498164 0.42942668 20.69578925 -0.125 27.5625 C-0.21136719 28.57119141 -0.29773438 29.57988281 -0.38671875 30.61914062 C-0.59656659 33.07902365 -0.80088467 35.53922902 -1 38 C-1.33 38 -1.66 38 -2 38 C-2.10909821 29.21153269 -2.00745371 20.4658373 -1.5625 11.6875 C-1.52326416 10.86983154 -1.48402832 10.05216309 -1.44360352 9.2097168 C-1.26469282 5.94227867 -1.03979168 3.11937503 0 0 Z " fill="#E7A754" transform="translate(158,158)"/>
<path d="M0 0 C1.32 0 2.64 0 4 0 C4.125 3.375 4.125 3.375 4 7 C3.34 7.66 2.68 8.32 2 9 C1.01 9 0.02 9 -1 9 C0.175625 10.1446875 0.175625 10.1446875 1.375 11.3125 C4 14 4 14 6 17 C4.02 17.99 4.02 17.99 2 19 C0.70450101 17.90033225 -0.58626071 16.79508199 -1.875 15.6875 C-2.59429687 15.07261719 -3.31359375 14.45773438 -4.0546875 13.82421875 C-6 12 -6 12 -8 9 C-7.625 6.3125 -7.625 6.3125 -7 4 C-5.02 4 -3.04 4 -1 4 C-0.67 2.68 -0.34 1.36 0 0 Z " fill="#5D20DB" transform="translate(225,158)"/>
<path d="M0 0 C-3.19579273 1.79573115 -6.16458671 2.54019737 -9.75 3.25 C-16.01541049 4.61389888 -21.79333441 6.67310149 -27.70605469 9.10644531 C-32.69112306 11.10295898 -32.69112306 11.10295898 -36 10 C-35.01 9.01 -34.02 8.02 -33 7 C-37.455 7.495 -37.455 7.495 -42 8 C-39.29109144 5.29109144 -36.30441286 4.86286514 -32.6875 4 C-31.97053955 3.82629883 -31.2535791 3.65259766 -30.51489258 3.47363281 C-20.33344522 1.06737566 -10.48282038 -0.37813781 0 0 Z " fill="#EAB04F" transform="translate(248,72)"/>
<path d="M0 0 C13.78917454 2.21611734 27.38515177 9.40231732 39 17 C39.495 17.99 39.495 17.99 40 19 C34.7372859 17.30522766 29.58226799 15.46422679 24.4375 13.4375 C19.65450967 11.57370564 15.01418842 10.08149162 10 9 C10.33 7.35 10.66 5.7 11 4 C10.28972656 3.87882813 9.57945313 3.75765625 8.84765625 3.6328125 C7.92855469 3.46523437 7.00945312 3.29765625 6.0625 3.125 C4.68771484 2.88136719 4.68771484 2.88136719 3.28515625 2.6328125 C2.53105469 2.42398438 1.77695313 2.21515625 1 2 C0.67 1.34 0.34 0.68 0 0 Z " fill="#9065E6" transform="translate(106,207)"/>
<path d="M0 0 C0.33 0 0.66 0 1 0 C1.96953382 7.72785134 2.12131488 15.34333901 2.0625 23.125 C2.05798828 24.27226563 2.05347656 25.41953125 2.04882812 26.6015625 C2.03716339 29.40109813 2.02079614 32.20051986 2 35 C1.34 34.67 0.68 34.34 0 34 C-0.04898438 34.90363281 -0.09796875 35.80726562 -0.1484375 36.73828125 C-0.22320312 37.91777344 -0.29796875 39.09726563 -0.375 40.3125 C-0.44460937 41.48425781 -0.51421875 42.65601563 -0.5859375 43.86328125 C-1 47 -1 47 -3 50 C-2.73636367 44.64706954 -2.46972206 39.29429979 -2.20043945 33.94165039 C-2.10946818 32.12528413 -2.01928127 30.30887839 -1.92993164 28.49243164 C-0.97668192 9.13453923 -0.97668192 9.13453923 0 0 Z " fill="#7ABCD6" transform="translate(45,84)"/>
<path d="M0 0 C3.22681318 6.23850548 3.08201627 11.0286171 3 18 C-0.96 17.01 -4.92 16.02 -9 15 C-6.72432197 11.20720329 -5.21929151 8.80389906 -2 6 C-1.34 6 -0.68 6 0 6 C0 4.02 0 2.04 0 0 Z " fill="#7E4EE0" transform="translate(279,200)"/>
<path d="M0 0 C0.33 0 0.66 0 1 0 C3.4308263 10.601671 3.1078782 22.10781858 3.25 32.9375 C3.2713501 33.80769775 3.2927002 34.67789551 3.31469727 35.57446289 C3.328125 38.02734375 3.328125 38.02734375 3 42 C2.01 42.66 1.02 43.32 0 44 C0 29.48 0 14.96 0 0 Z " fill="#80BCD3" transform="translate(262,79)"/>
<path d="M0 0 C0.99 2.97 1.98 5.94 3 9 C2 10 2 10 -1.25 10.25 C-5.19271463 9.98715236 -7.04294322 9.59862565 -10 7 C-10.5625 4.5 -10.5625 4.5 -10 2 C-6.86993817 -1.6116098 -4.40477201 -1.101193 0 0 Z " fill="#6227D6" transform="translate(232,145)"/>
<path d="M0 0 C0.33 0 0.66 0 1 0 C1.226875 0.9075 1.45375 1.815 1.6875 2.75 C3.24875836 6.61597307 4.45569514 7.84259704 8 10 C10.66105287 10.86891522 13.24719887 11.44010824 16 12 C13.03799949 13.974667 10.90228368 14.71955354 7.5 15.625 C6.06140625 16.01558594 6.06140625 16.01558594 4.59375 16.4140625 C2 17 2 17 -1 17 C-0.67 11.39 -0.34 5.78 0 0 Z " fill="#8A53F8" transform="translate(27,201)"/>
<path d="M0 0 C1.32 0 2.64 0 4 0 C4 0.66 4 1.32 4 2 C4.556875 2.103125 5.11375 2.20625 5.6875 2.3125 C8.64117261 3.19061889 10.57483255 4.06066248 13 6 C13.5234375 9.3203125 13.5234375 9.3203125 13.375 13.125 C13.34148437 14.38570312 13.30796875 15.64640625 13.2734375 16.9453125 C13 20 13 20 12 21 C11.76321284 23.69235776 11.57801975 26.36498156 11.4375 29.0625 C11.39431641 29.82111328 11.35113281 30.57972656 11.30664062 31.36132812 C11.20026367 33.24065438 11.09960066 35.12030244 11 37 C11.66 37 12.32 37 13 37 C13.33 38.98 13.66 40.96 14 43 C10.41331917 39.73938107 9.08697556 37.34590988 8.76953125 32.43359375 C8.79080078 30.45552734 8.79080078 30.45552734 8.8125 28.4375 C8.81314453 27.76525391 8.81378906 27.09300781 8.81445312 26.40039062 C8.8418421 23.33586829 9.0242387 20.9272839 10 18 C10.22325814 15.94106379 10.40705759 13.87766347 10.5625 11.8125 C10.64628906 10.72582031 10.73007813 9.63914062 10.81640625 8.51953125 C10.87699219 7.68808594 10.93757812 6.85664062 11 6 C9.86498047 5.55527344 9.86498047 5.55527344 8.70703125 5.1015625 C5.71843944 3.88542557 2.87143959 2.46910863 0 1 C0 0.67 0 0.34 0 0 Z " fill="#E8AA46" transform="translate(122,41)"/>
<path d="M0 0 C0.33 0 0.66 0 1 0 C1.73182644 5.65997681 2.38336361 11.32635977 3 17 C3.11730469 18.05944824 3.23460937 19.11889648 3.35546875 20.21044922 C3.71948273 23.59665993 4.05072377 26.98477267 4.375 30.375 C4.49601074 31.47448975 4.61702148 32.57397949 4.74169922 33.70678711 C4.83467285 34.73940674 4.92764648 35.77202637 5.0234375 36.8359375 C5.11544434 37.75938965 5.20745117 38.6828418 5.30224609 39.63427734 C5.20250488 40.41496582 5.10276367 41.1956543 5 42 C3.68 42.99 2.36 43.98 1 45 C0.67 30.15 0.34 15.3 0 0 Z " fill="#9179C3" transform="translate(272,115)"/>
<path d="M0 0 C0.44921875 2.7109375 0.44921875 2.7109375 0 6 C-2.42845772 7.88778223 -4.49981537 9.22490382 -7.1875 10.625 C-8.53706574 11.36370967 -9.88476287 12.10584451 -11.23046875 12.8515625 C-11.87419434 13.20508789 -12.51791992 13.55861328 -13.18115234 13.92285156 C-15.6517731 15.38598966 -17.82460023 17.13295787 -20 19 C-20.66 18.67 -21.32 18.34 -22 18 C-4.78640777 0 -4.78640777 0 0 0 Z " fill="#75B0C6" transform="translate(183,200)"/>
<path d="M0 0 C0 0.66 0 1.32 0 2 C-1.21115479 2.03758423 -1.21115479 2.03758423 -2.44677734 2.07592773 C-6.08968917 2.19165487 -9.73232726 2.31448635 -13.375 2.4375 C-15.28152344 2.49647461 -15.28152344 2.49647461 -17.2265625 2.55664062 C-18.43828125 2.59853516 -19.65 2.64042969 -20.8984375 2.68359375 C-22.57945557 2.73858032 -22.57945557 2.73858032 -24.29443359 2.79467773 C-26.96712771 2.82596013 -26.96712771 2.82596013 -29 4 C-30.41298094 4.1780356 -31.83076636 4.31923053 -33.25 4.4375 C-36.1372841 4.72346104 -38.35038162 5.11912975 -41.125 6.0625 C-44.52795772 7.17216013 -47.44362334 7.14225507 -51 7 C-36.38374637 -1.51024689 -16.22853008 -0.15135417 0 0 Z " fill="#6DB7D4" transform="translate(260,181)"/>
<path d="M0 0 C7.4422658 -0.48801743 7.4422658 -0.48801743 9.75 1.53125 C11.46775607 4.92381825 11.32408174 8.04478256 11.1875 11.75 C11.17396484 12.44738281 11.16042969 13.14476562 11.14648438 13.86328125 C11.1112945 15.57585541 11.05749155 17.28802941 11 19 C10.01 19 9.02 19 8 19 C8 18.01 8 17.02 8 16 C7.01 15.67 6.02 15.34 5 15 C5.66 13.68 6.32 12.36 7 11 C4.69 11 2.38 11 0 11 C0 10.01 0 9.02 0 8 C2.31 8 4.62 8 7 8 C7 5.69 7 3.38 7 1 C4.69 1 2.38 1 0 1 C0 0.67 0 0.34 0 0 Z " fill="#1EB8D3" transform="translate(124,157)"/>
<path d="M0 0 C-3.51187196 2.40814077 -5.72656908 3.36629408 -10 3 C-10 3.66 -10 4.32 -10 5 C-12.31 5.66 -14.62 6.32 -17 7 C-17 7.66 -17 8.32 -17 9 C-16.34 9 -15.68 9 -15 9 C-15 9.66 -15 10.32 -15 11 C-16.32 10.67 -17.64 10.34 -19 10 C-19.0270817 12.72923388 -19.04687847 15.45819637 -19.0625 18.1875 C-19.07087891 18.95642578 -19.07925781 19.72535156 -19.08789062 20.51757812 C-19.10491934 24.48526789 -18.98604115 28.12571234 -18 32 C-18.66 32 -19.32 32 -20 32 C-20 31.34 -20 30.68 -20 30 C-20.66 30 -21.32 30 -22 30 C-21.67 22.08 -21.34 14.16 -21 6 C-2.66666667 -1.33333333 -2.66666667 -1.33333333 0 0 Z " fill="#E2A849" transform="translate(137,30)"/>
<path d="M0 0 C0.33 0 0.66 0 1 0 C1.0289337 3.79165074 1.04677601 7.58327327 1.0625 11.375 C1.07087891 12.45523438 1.07925781 13.53546875 1.08789062 14.6484375 C1.09111328 15.6796875 1.09433594 16.7109375 1.09765625 17.7734375 C1.10289307 18.72653809 1.10812988 19.67963867 1.11352539 20.66162109 C1 23 1 23 0 25 C-0.11532719 26.35107766 -0.17836247 27.70690047 -0.2109375 29.0625 C-0.23929688 29.85914063 -0.26765625 30.65578125 -0.296875 31.4765625 C-0.34895141 33.15863063 -0.39322511 34.84095848 -0.4296875 36.5234375 C-0.460625 37.32007813 -0.4915625 38.11671875 -0.5234375 38.9375 C-0.54325684 39.66839844 -0.56307617 40.39929688 -0.58349609 41.15234375 C-1 43 -1 43 -4 45 C-5.75163456 41.22777911 -6.22490027 38.333361 -6.125 34.1875 C-6.10695312 33.21167969 -6.08890625 32.23585937 -6.0703125 31.23046875 C-6.04710937 30.49441406 -6.02390625 29.75835937 -6 29 C-5.67 29 -5.34 29 -5 29 C-4.67 32.3 -4.34 35.6 -4 39 C-3.67 39 -3.34 39 -3 39 C-2.01 26.13 -1.02 13.26 0 0 Z " fill="#FCF1D0" transform="translate(158,174)"/>
<path d="M0 0 C7.28413195 3.28038275 13.57466851 9.21297974 19 15 C18.67 15.66 18.34 16.32 18 17 C16.97519531 16.31292969 15.95039063 15.62585938 14.89453125 14.91796875 C13.53389567 14.00775046 12.17321627 13.09759767 10.8125 12.1875 C10.13896484 11.73568359 9.46542969 11.28386719 8.77148438 10.81835938 C5.23101931 8.45229248 1.67811346 6.14973234 -2 4 C-1.34 2.68 -0.68 1.36 0 0 Z " fill="#5495AF" transform="translate(128,202)"/>
<path d="M0 0 C0.66 0 1.32 0 2 0 C2 9.24 2 18.48 2 28 C1.34 28 0.68 28 0 28 C-1.03254884 24.90235347 -1.12908904 22.73851213 -1.1328125 19.4921875 C-1.13410156 18.42355469 -1.13539063 17.35492188 -1.13671875 16.25390625 C-1.13285156 15.13886719 -1.12898438 14.02382812 -1.125 12.875 C-1.12886719 11.75222656 -1.13273437 10.62945312 -1.13671875 9.47265625 C-1.13542969 8.40660156 -1.13414062 7.34054688 -1.1328125 6.2421875 C-1.13168457 5.2610498 -1.13055664 4.27991211 -1.12939453 3.26904297 C-1 1 -1 1 0 0 Z " fill="#8A54F4" transform="translate(275,157)"/>
<path d="M0 0 C1.21236328 0.04060547 1.21236328 0.04060547 2.44921875 0.08203125 C3.06410156 0.11683594 3.67898437 0.15164062 4.3125 0.1875 C4.3125 0.5175 4.3125 0.8475 4.3125 1.1875 C2.3325 1.5175 0.3525 1.8475 -1.6875 2.1875 C-2.04356813 7.15301325 -2.04356813 7.15301325 -0.1875 11.625 C0.3075 12.140625 0.8025 12.65625 1.3125 13.1875 C-0.6675 14.1775 -0.6675 14.1775 -2.6875 15.1875 C-6.0988289 12.37315365 -7.57172065 11.02690026 -8.1875 6.5625 C-7.6875 3.1875 -7.6875 3.1875 -6.44921875 1.48828125 C-4.16135138 -0.20098667 -2.81142634 -0.12223593 0 0 Z " fill="#6727CB" transform="translate(167.6875,161.8125)"/>
<path d="M0 0 C1.98 0 3.96 0 6 0 C6.08096803 1.45742463 6.13917774 2.91612807 6.1875 4.375 C6.22230469 5.18710938 6.25710937 5.99921875 6.29296875 6.8359375 C6.19628906 7.55007812 6.09960938 8.26421875 6 9 C2.77208445 11.1519437 1.71599191 11.20086443 -2 11 C-2 6.91621923 -1.19287411 3.87684087 0 0 Z " fill="#F1E3FE" transform="translate(191,158)"/>
<path d="M0 0 C2.64 0 5.28 0 8 0 C8 1.65 8 3.3 8 5 C6.35 5.33 4.7 5.66 3 6 C2.7834375 7.546875 2.7834375 7.546875 2.5625 9.125 C2.08339543 12.42549813 1.56124917 15.71268341 1 19 C0.67 19 0.34 19 0 19 C0 12.73 0 6.46 0 0 Z " fill="#EDEAFE" transform="translate(178,158)"/>
<path d="M0 0 C3.96 0 7.92 0 12 0 C11.67 1.65 11.34 3.3 11 5 C9.02 5 7.04 5 5 5 C5 6.65 5 8.3 5 10 C3 10 3 10 1.375 8.9375 C-0.68369484 6.03661182 -0.19557733 3.45519943 0 0 Z " fill="#F7EBFE" transform="translate(213,158)"/>
<path d="M0 0 C0.66 0.33 1.32 0.66 2 1 C2 5.29 2 9.58 2 14 C1.01 14 0.02 14 -1 14 C-1 19.28 -1 24.56 -1 30 C-1.33 30 -1.66 30 -2 30 C-2.04939662 26.04903022 -2.08571755 22.0981797 -2.10986328 18.14697266 C-2.12488107 16.1408864 -2.15028981 14.13488676 -2.17578125 12.12890625 C-2.18544922 10.24365234 -2.18544922 10.24365234 -2.1953125 8.3203125 C-2.20578613 7.15773926 -2.21625977 5.99516602 -2.22705078 4.79736328 C-2 2 -2 2 0 0 Z " fill="#67BAD9" transform="translate(264,121)"/>
<path d="M0 0 C0.66 0.33 1.32 0.66 2 1 C2 5.95 2 10.9 2 16 C2.66 15.34 3.32 14.68 4 14 C5.32 15.32 6.64 16.64 8 18 C7.34 19.32 6.68 20.64 6 22 C2.58774697 20.58803323 0.84543949 19.21514246 -1 16 C-1.23964584 13.34392531 -1.33044618 10.95465412 -1.25 8.3125 C-1.24484375 7.62349609 -1.2396875 6.93449219 -1.234375 6.22460938 C-1.15461101 1.15461101 -1.15461101 1.15461101 0 0 Z " fill="#3BBAD1" transform="translate(86,161)"/>
<path d="M0 0 C0.33 0 0.66 0 1 0 C1 6.27 1 12.54 1 19 C-0.65 19 -2.3 19 -4 19 C-4 18.01 -4 17.02 -4 16 C-7.96 17.98 -7.96 17.98 -12 20 C-12.66 18.68 -13.32 17.36 -14 16 C-12.71349294 15.30289269 -11.42059335 14.61757124 -10.125 13.9375 C-9.40570313 13.55464844 -8.68640625 13.17179688 -7.9453125 12.77734375 C-7.30335937 12.52082031 -6.66140625 12.26429688 -6 12 C-5.34 12.33 -4.68 12.66 -4 13 C-4.33 13.33 -4.66 13.66 -5 14 C-4.34 14.33 -3.68 14.66 -3 15 C-3 15.99 -3 16.98 -3 18 C-2.01 18 -1.02 18 0 18 C0 12.06 0 6.12 0 0 Z " fill="#44C2D8" transform="translate(135,158)"/>
<path d="M0 0 C0.33 0 0.66 0 1 0 C1.08090971 1.62418745 1.13914995 3.24951745 1.1875 4.875 C1.23970703 6.23238281 1.23970703 6.23238281 1.29296875 7.6171875 C1.19628906 8.40351563 1.09960938 9.18984375 1 10 C0.01 10.66 -0.98 11.32 -2 12 C-1.67 12.66 -1.34 13.32 -1 14 C-3.88861709 15.44430855 -5.79647701 15.37688506 -9 15 C-11.80740885 12.75407292 -13.61164156 11.10532787 -14.8125 7.6875 C-14.874375 7.130625 -14.93625 6.57375 -15 6 C-13.68 5.67 -12.36 5.34 -11 5 C-10.67 3.68 -10.34 2.36 -10 1 C-10 2.65 -10 4.3 -10 6 C-10.66 6 -11.32 6 -12 6 C-11.34 7.98 -10.68 9.96 -10 12 C-7.03 11.01 -4.06 10.02 -1 9 C-0.67 6.03 -0.34 3.06 0 0 Z " fill="#5F20CA" transform="translate(197,158)"/>
<path d="M0 0 C4.29 0 8.58 0 13 0 C13 1.32 13 2.64 13 4 C12.32453125 4.03738281 11.6490625 4.07476562 10.953125 4.11328125 C10.06109375 4.17902344 9.1690625 4.24476563 8.25 4.3125 C6.92742187 4.39951172 6.92742187 4.39951172 5.578125 4.48828125 C2.67696226 5.0641181 1.20774393 6.07596148 -1 8 C-0.67 5.36 -0.34 2.72 0 0 Z " fill="#F7DEF3" transform="translate(160,158)"/>
<path d="M0 0 C-3.35132226 1.88818401 -6.63059655 2.72895564 -10.375 3.5625 C-11.47585937 3.81128906 -12.57671875 4.06007813 -13.7109375 4.31640625 C-16.79851983 4.95812467 -19.88571492 5.5060424 -23 6 C-23 5.67 -23 5.34 -23 5 C-24.65 4.67 -26.3 4.34 -28 4 C-19.87887982 -0.6574135 -9.10611346 -0.32847704 0 0 Z " fill="#E6B666" transform="translate(248,72)"/>
<path d="M0 0 C1.485 0.99 1.485 0.99 3 2 C3.19548119 4.70297348 3.20734463 7.16015527 3.07421875 9.8515625 C3.04777786 10.62559418 3.02133698 11.39962585 2.99409485 12.19711304 C2.90619217 14.67384806 2.79709593 17.14913915 2.6875 19.625 C2.62425548 21.30203128 2.56238894 22.97911515 2.50195312 24.65625 C2.35062967 28.77161428 2.18029195 32.88580712 2 37 C1.67 37 1.34 37 1 37 C0.67 28.09 0.34 19.18 0 10 C-0.33 10 -0.66 10 -1 10 C-1.125 2.25 -1.125 2.25 0 0 Z " fill="#8F66E0" transform="translate(32,158)"/>
<path d="M0 0 C3.3 0 6.6 0 10 0 C10 0.66 10 1.32 10 2 C9.01 2.33 8.02 2.66 7 3 C6.67 8.61 6.34 14.22 6 20 C5.34 20 4.68 20 4 20 C4 14.06 4 8.12 4 2 C2.68 2 1.36 2 0 2 C0 1.34 0 0.68 0 0 Z " fill="#5C17EA" transform="translate(205,155)"/>
<path d="M0 0 C2.7561237 0.23623917 5.51091809 0.38196076 8.2734375 0.5234375 C11.29573301 1.05168972 12.72917923 1.98747164 15 4 C13.92105469 3.86722656 12.84210938 3.73445312 11.73046875 3.59765625 C0.49610882 2.25944945 -10.6978533 1.47614365 -22 1 C-22 0.67 -22 0.34 -22 0 C-3.46067416 -1.73033708 -3.46067416 -1.73033708 0 0 Z " fill="#77BCD6" transform="translate(78,190)"/>
<path d="M0 0 C0.66 0 1.32 0 2 0 C2.25427918 3.1234924 2.47412319 6.24846821 2.6875 9.375 C2.76033203 10.26445312 2.83316406 11.15390625 2.90820312 12.0703125 C2.96298828 12.92109375 3.01777344 13.771875 3.07421875 14.6484375 C3.13182373 15.43395996 3.18942871 16.21948242 3.2487793 17.02880859 C3.16668213 17.67930176 3.08458496 18.32979492 3 19 C0 21 0 21 -4 21 C-4 20.34 -4 19.68 -4 19 C-2.68 19 -1.36 19 0 19 C0 12.73 0 6.46 0 0 Z " fill="#CCF7FC" transform="translate(146,158)"/>
<path d="M0 0 C0.33 0 0.66 0 1 0 C1 7.92 1 15.84 1 24 C4.96 24 8.92 24 13 24 C13 24.33 13 24.66 13 25 C8.38 25.33 3.76 25.66 -1 26 C-1.11953999 17.2735804 -0.65721694 8.69638849 0 0 Z " fill="#77BAD4" transform="translate(40,167)"/>
<path d="M0 0 C8.82641419 0.45263663 17.33829426 1.14520646 26 3 C23.10765685 3.82638376 21.11257569 4 18 4 C18.99 4.66 19.98 5.32 21 6 C16.01155691 5.3900874 11.39844654 4.36525565 6.5625 2.9375 C5.32628906 2.57527344 4.09007813 2.21304688 2.81640625 1.83984375 C1.88699219 1.56269531 0.95757812 1.28554687 0 1 C0 0.67 0 0.34 0 0 Z " fill="#E5B76C" transform="translate(62,72)"/>
<path d="M0 0 C3.08917348 0.3432415 4.77105979 0.82193539 7.25 2.75 C9.17806461 5.22894021 9.6567585 6.91082652 10 10 C11.32 10 12.64 10 14 10 C14 11.32 14 12.64 14 14 C13.34 13.67 12.68 13.34 12 13 C12.33 12.34 12.66 11.68 13 11 C10.36 11 7.72 11 5 11 C4.855625 10.2575 4.71125 9.515 4.5625 8.75 C4.376875 7.8425 4.19125 6.935 4 6 C3.87625 5.278125 3.7525 4.55625 3.625 3.8125 C3.06997632 1.60914977 3.06997632 1.60914977 0 0 Z " fill="#5D2BCF" transform="translate(229,144)"/>
<path d="M0 0 C0 3.13604096 -0.45408323 4.23568381 -1.875 6.9375 C-2.22304687 7.60652344 -2.57109375 8.27554688 -2.9296875 8.96484375 C-3.28289062 9.63644531 -3.63609375 10.30804688 -4 11 C-4.66943531 12.33194542 -5.33691996 13.66487938 -6 15 C-7.32 14.67 -8.64 14.34 -10 14 C-10.33 12.35 -10.66 10.7 -11 9 C-11.66 9 -12.32 9 -13 9 C-13.66 6.69 -14.32 4.38 -15 2 C-11.66442368 4.9905167 -9.84916079 7.93184627 -8 12 C-7.50628906 11.21753906 -7.01257813 10.43507813 -6.50390625 9.62890625 C-5.86324219 8.61699219 -5.22257813 7.60507813 -4.5625 6.5625 C-3.60537109 5.04849609 -3.60537109 5.04849609 -2.62890625 3.50390625 C-1 1 -1 1 0 0 Z " fill="#EAAF4E" transform="translate(162,106)"/>
<path d="M0 0 C0.33 0 0.66 0 1 0 C1 2.31 1 4.62 1 7 C1.66 7 2.32 7 3 7 C3 14.92 3 22.84 3 31 C2.67 31 2.34 31 2 31 C1.65970492 27.52147832 1.3290613 24.04210091 1 20.5625 C0.90460938 19.58861328 0.80921875 18.61472656 0.7109375 17.61132812 C0.15825902 11.70951151 -0.09807559 5.92744322 0 0 Z " fill="#E8B055" transform="translate(150,172)"/>
<path d="M0 0 C0.66 0.33 1.32 0.66 2 1 C-0.625 4.875 -0.625 4.875 -4 6 C-5.88455518 7.85978416 -5.88455518 7.85978416 -7.6875 10.0625 C-8.62142578 11.16271484 -8.62142578 11.16271484 -9.57421875 12.28515625 C-10.04472656 12.85105469 -10.51523438 13.41695312 -11 14 C-11.99 13.67 -12.98 13.34 -14 13 C-9.99191229 7.69898077 -5.33731159 3.93030788 0 0 Z " fill="#EDAF4A" transform="translate(177,92)"/>
<path d="M0 0 C1.4540625 0.0309375 1.4540625 0.0309375 2.9375 0.0625 C2.9375 0.3925 2.9375 0.7225 2.9375 1.0625 C1.2875 1.0625 -0.3625 1.0625 -2.0625 1.0625 C-2.02125 1.97 -1.98 2.8775 -1.9375 3.8125 C-2.06096853 7.0226818 -2.6376571 8.30780374 -4.0625 11.0625 C-3.7325 12.0525 -3.4025 13.0425 -3.0625 14.0625 C-6.9375 13.1875 -6.9375 13.1875 -8.0625 12.0625 C-8.10313832 10.39632885 -8.105221 8.72861905 -8.0625 7.0625 C-6.7425 6.7325 -5.4225 6.4025 -4.0625 6.0625 C-4.083125 5.258125 -4.10375 4.45375 -4.125 3.625 C-4.03366838 -0.11959638 -3.80090148 0.07756942 0 0 Z " fill="#5A25D8" transform="translate(193.0625,156.9375)"/>
<path d="M0 0 C-0.33 2.64 -0.66 5.28 -1 8 C-3.31 8 -5.62 8 -8 8 C-7.32253522 3.25774652 -4.9532836 0 0 0 Z " fill="#8E57F9" transform="translate(282,207)"/>
<path d="M0 0 C0.94101563 0.00322266 1.88203125 0.00644531 2.8515625 0.00976562 C3.83640625 0.01814453 4.82125 0.02652344 5.8359375 0.03515625 C6.82851562 0.03966797 7.82109375 0.04417969 8.84375 0.04882812 C11.2995391 0.0606348 13.75520854 0.07710225 16.2109375 0.09765625 C16.2109375 0.42765625 16.2109375 0.75765625 16.2109375 1.09765625 C15.35544312 1.13524048 15.35544312 1.13524048 14.48266602 1.17358398 C11.91267593 1.28922174 9.34308223 1.41209249 6.7734375 1.53515625 C5.87560547 1.57447266 4.97777344 1.61378906 4.05273438 1.65429688 C3.19873047 1.69619141 2.34472656 1.73808594 1.46484375 1.78125 C0.67408447 1.81790771 -0.1166748 1.85456543 -0.93139648 1.89233398 C-2.80307691 1.90328882 -2.80307691 1.90328882 -3.7890625 3.09765625 C-6.31502509 3.33419148 -8.82013457 3.51939317 -11.3515625 3.66015625 C-12.06248047 3.70333984 -12.77339844 3.74652344 -13.50585938 3.79101562 C-15.26668162 3.89737402 -17.0278457 3.99804471 -18.7890625 4.09765625 C-18.7890625 3.43765625 -18.7890625 2.77765625 -18.7890625 2.09765625 C-17.94601563 2.03707031 -17.10296875 1.97648438 -16.234375 1.9140625 C-15.13867188 1.83027344 -14.04296875 1.74648437 -12.9140625 1.66015625 C-11.82351562 1.57894531 -10.73296875 1.49773437 -9.609375 1.4140625 C-6.11730939 1.02229337 -3.61460901 -0.02177475 0 0 Z " fill="#6CBBD9" transform="translate(237.7890625,188.90234375)"/>
<path d="M0 0 C0.27561917 2.26786642 0.51971457 4.53958279 0.75 6.8125 C0.88921875 8.07707031 1.0284375 9.34164062 1.171875 10.64453125 C1.11515625 11.75183594 1.0584375 12.85914063 1 14 C-0.32 14.99 -1.64 15.98 -3 17 C-3 11.72 -3 6.44 -3 1 C-1 0 -1 0 0 0 Z " fill="#A17EE5" transform="translate(276,143)"/>
<path d="M0 0 C0.33 0 0.66 0 1 0 C1.96953382 7.72785134 2.12131488 15.34333901 2.0625 23.125 C2.05798828 24.27226563 2.05347656 25.41953125 2.04882812 26.6015625 C2.03716339 29.40109813 2.02079614 32.20051986 2 35 C1.67 35 1.34 35 1 35 C0.67 28.73 0.34 22.46 0 16 C-0.33 16 -0.66 16 -1 16 C-0.67 10.72 -0.34 5.44 0 0 Z " fill="#9CC8D9" transform="translate(45,84)"/>
<path d="M0 0 C-3.00583118 2.00388745 -3.89795392 2.26410735 -7.3125 2.5 C-10.20066637 2.75662221 -12.34725253 3.11806586 -15.125 4.0625 C-18.52795772 5.17216013 -21.44362334 5.14225507 -25 5 C-21.09275214 2.70345272 -16.86654949 1.83926928 -12.5 0.8125 C-11.74074219 0.62236328 -10.98148438 0.43222656 -10.19921875 0.23632812 C-9.46316406 0.06166016 -8.72710937 -0.11300781 -7.96875 -0.29296875 C-7.30294922 -0.4530542 -6.63714844 -0.61313965 -5.95117188 -0.77807617 C-3.72787443 -1.03095122 -2.12326214 -0.65952499 0 0 Z " fill="#78BED9" transform="translate(234,183)"/>
<path d="M0 0 C2.31 0 4.62 0 7 0 C7 1.98 7 3.96 7 6 C4.69 6 2.38 6 0 6 C0 4.02 0 2.04 0 0 Z " fill="#DFFCFE" transform="translate(124,158)"/>
<path d="M0 0 C0.99 0 1.98 0 3 0 C3.33 0.66 3.66 1.32 4 2 C5.16015625 1.7834375 5.16015625 1.7834375 6.34375 1.5625 C12.32823915 0.49595738 17.92337435 -0.23371637 24 0 C24 0.33 24 0.66 24 1 C6.85106383 4.57446809 6.85106383 4.57446809 -2 4 C-1.34 2.68 -0.68 1.36 0 0 Z " fill="#8B5FE2" transform="translate(189,211)"/>
<path d="M0 0 C0.33 0 0.66 0 1 0 C1.98248524 4.0527516 2.08159574 7.83861737 2 12 C1.01 12 0.02 12 -1 12 C-1 11.01 -1 10.02 -1 9 C-1.99 8.67 -2.98 8.34 -4 8 C-1.125 1.125 -1.125 1.125 0 0 Z " fill="#12BEDB" transform="translate(133,164)"/>
<path d="M0 0 C2.4375 0.125 2.4375 0.125 5 1 C6.3125 3.5625 6.3125 3.5625 7 6 C4.69 6 2.38 6 0 6 C-0.38218767 4.34385343 -0.71395102 2.67542976 -1 1 C-0.67 0.67 -0.34 0.34 0 0 Z " fill="#F2E3FE" transform="translate(228,148)"/>
<path d="M0 0 C2.97 0.33 5.94 0.66 9 1 C9 1.66 9 2.32 9 3 C8.01 3 7.02 3 6 3 C6.969375 3.7425 7.93875 4.485 8.9375 5.25 C11.02387361 6.97309915 11.90112479 7.73868694 12.875 10.3125 C12.936875 11.1478125 12.936875 11.1478125 13 12 C12.34 12 11.68 12 11 12 C10.79375 11.4225 10.5875 10.845 10.375 10.25 C8.51518335 7.20666366 5.95455813 5.92688574 3 4 C3 3.34 3 2.68 3 2 C2.01 2 1.02 2 0 2 C0 1.34 0 0.68 0 0 Z " fill="#EEB454" transform="translate(162,46)"/>
<path d="M0 0 C5.65649 1.09025318 10.86902656 2.327618 16 5 C16.33 5.99 16.66 6.98 17 8 C14.69 8 12.38 8 10 8 C10.33 6.68 10.66 5.36 11 4 C10.28972656 3.87882813 9.57945313 3.75765625 8.84765625 3.6328125 C7.92855469 3.46523437 7.00945312 3.29765625 6.0625 3.125 C4.68771484 2.88136719 4.68771484 2.88136719 3.28515625 2.6328125 C2.53105469 2.42398438 1.77695313 2.21515625 1 2 C0.67 1.34 0.34 0.68 0 0 Z " fill="#8659DF" transform="translate(106,207)"/>
<path d="M0 0 C0.33 0 0.66 0 1 0 C1.05398987 2.27057377 1.09278742 4.54151288 1.125 6.8125 C1.14820313 8.07707031 1.17140625 9.34164062 1.1953125 10.64453125 C1 14 1 14 -1 17 C-1.9702889 14.08913331 -2.16467847 12.09776315 -2.1875 9.0625 C-2.20167969 8.20785156 -2.21585938 7.35320312 -2.23046875 6.47265625 C-1.98703556 3.86090697 -1.3178268 2.24499348 0 0 Z " fill="#E3B568" transform="translate(155,199)"/>
<path d="M0 0 C0 0.99 0 1.98 0 3 C-0.515625 3.474375 -1.03125 3.94875 -1.5625 4.4375 C-3.20452749 5.86845233 -3.20452749 5.86845233 -3 7.8125 C-1.52391883 11.04142755 0.64689929 13.34521972 3 16 C0 16 0 16 -2.6875 13.875 C-5 11 -5 11 -5.625 8 C-4.80695681 4.07339268 -3.00495843 2.55421467 0 0 Z " fill="#7948DD" transform="translate(33,195)"/>
<path d="M0 0 C2.64 0 5.28 0 8 0 C8 0.66 8 1.32 8 2 C6.71086513 2.67154933 5.41859796 3.33708859 4.125 4 C3.40570313 4.37125 2.68640625 4.7425 1.9453125 5.125 C0 6 0 6 -2 6 C-2.33 5.01 -2.66 4.02 -3 3 C-2.01 3 -1.02 3 0 3 C0 2.01 0 1.02 0 0 Z " fill="#AEEFF7" transform="translate(123,168)"/>
<path d="M0 0 C0.66 0 1.32 0 2 0 C2 2.31 2 4.62 2 7 C1.67 7 1.34 7 1 7 C0.67 12.94 0.34 18.88 0 25 C-0.33 25 -0.66 25 -1 25 C-1.02886984 21.02084841 -1.04675406 17.04172347 -1.0625 13.0625 C-1.07087891 11.92619141 -1.07925781 10.78988281 -1.08789062 9.61914062 C-1.09111328 8.53955078 -1.09433594 7.45996094 -1.09765625 6.34765625 C-1.10289307 5.34742432 -1.10812988 4.34719238 -1.11352539 3.31665039 C-1 1 -1 1 0 0 Z " fill="#8960DA" transform="translate(275,157)"/>
<path d="M0 0 C4.9335117 2.35406142 9.51978158 4.86384711 14 8 C13.01 8.495 13.01 8.495 12 9 C9.92803369 8.26821134 7.8891448 7.44100997 5.875 6.5625 C4.77929688 6.08941406 3.68359375 5.61632812 2.5546875 5.12890625 C1.71164063 4.75636719 0.86859375 4.38382813 0 4 C0 2.68 0 1.36 0 0 Z " fill="#9372D5" transform="translate(132,217)"/>
<path d="M0 0 C0.33 0 0.66 0 1 0 C1.06058594 1.24136719 1.12117188 2.48273437 1.18359375 3.76171875 C1.26803623 5.40365577 1.35268236 7.04558232 1.4375 8.6875 C1.47681641 9.50412109 1.51613281 10.32074219 1.55664062 11.16210938 C1.76898003 15.19655811 2.04447922 19.05747309 3 23 C2.34 23 1.68 23 1 23 C1 22.34 1 21.68 1 21 C0.34 21 -0.32 21 -1 21 C-0.67 14.07 -0.34 7.14 0 0 Z " fill="#D2AB6A" transform="translate(116,39)"/>
<path d="M0 0 C0.33 0 0.66 0 1 0 C1 4.95 1 9.9 1 15 C4.465 14.505 4.465 14.505 8 14 C5 16 5 16 -1 17 C-0.67 11.39 -0.34 5.78 0 0 Z " fill="#9773DE" transform="translate(27,201)"/>
<path d="M0 0 C0.66 0.33 1.32 0.66 2 1 C1.01 2.32 0.02 3.64 -1 5 C2.465 4.505 2.465 4.505 6 4 C3.14693203 6.32472205 0.45925163 7.7508258 -3 9 C-3.1875 5.625 -3.1875 5.625 -3 2 C-2.01 1.34 -1.02 0.68 0 0 Z " fill="#75BDD8" transform="translate(186,197)"/>
<path d="M0 0 C0.33 0 0.66 0 1 0 C1 1.65 1 3.3 1 5 C0.34 5 -0.32 5 -1 5 C-0.45160938 7.98220128 -0.45160938 7.98220128 1 11 C4.01779872 12.45160938 4.01779872 12.45160938 7 13 C7 13.33 7 13.66 7 14 C3.75 13.875 3.75 13.875 0 13 C-4 8.17948718 -4 8.17948718 -4 5 C-2.68 4.67 -1.36 4.34 0 4 C0 2.68 0 1.36 0 0 Z " fill="#7034CA" transform="translate(186,159)"/>
<path d="M0 0 C3.63 0 7.26 0 11 0 C10.34 1.32 9.68 2.64 9 4 C6.03 3.67 3.06 3.34 0 3 C0 2.01 0 1.02 0 0 Z " fill="#BCF8FE" transform="translate(90,164)"/>
<path d="M0 0 C3.63 0 7.26 0 11 0 C11 0.66 11 1.32 11 2 C7.37 2.66 3.74 3.32 0 4 C0 2.68 0 1.36 0 0 Z " fill="#FEF9FF" transform="translate(161,159)"/>
<path d="M0 0 C1.32 0.99 2.64 1.98 4 3 C4 3.66 4 4.32 4 5 C3.01 5 2.02 5 1 5 C1 10.28 1 15.56 1 21 C0.67 21 0.34 21 0 21 C0 14.07 0 7.14 0 0 Z " fill="#5DAECE" transform="translate(262,130)"/>
<path d="M0 0 C2.31 0 4.62 0 7 0 C6.67 2.31 6.34 4.62 6 7 C5.67 7 5.34 7 5 7 C5 5.35 5 3.7 5 2 C3.68 2 2.36 2 1 2 C1.33 3.65 1.66 5.3 2 7 C0.4375 5.75 0.4375 5.75 -1 4 C-0.6875 1.8125 -0.6875 1.8125 0 0 Z " fill="#C1F6FB" transform="translate(90,171)"/>
<path d="M0 0 C1.65 0.33 3.3 0.66 5 1 C3.89184175 4.21365891 3.01470446 4.9914224 0 6.75 C-3 8 -3 8 -5 8 C-5 7.34 -5 6.68 -5 6 C-3.02 5.34 -1.04 4.68 1 4 C0.67 2.68 0.34 1.36 0 0 Z " fill="#D9A144" transform="translate(188,35)"/>
<path d="M0 0 C1.65 0.99 3.3 1.98 5 3 C4.01 4.485 4.01 4.485 3 6 C-0.65316671 4.75023244 -1.78065836 4.32901247 -4 1 C-2.68 1.33 -1.36 1.66 0 2 C0 1.34 0 0.68 0 0 Z " fill="#6635CD" transform="translate(226,171)"/>
<path d="M0 0 C2.97 0 5.94 0 9 0 C9.33 0.66 9.66 1.32 10 2 C9.34 2 8.68 2 8 2 C8 3.65 8 5.3 8 7 C7.67 6.01 7.34 5.02 7 4 C5.35 4 3.7 4 2 4 C2.33 3.34 2.66 2.68 3 2 C2.01 1.34 1.02 0.68 0 0 Z " fill="#38BBD2" transform="translate(90,167)"/>
<path d="M0 0 C0 1.98 0 3.96 0 6 C-0.5775 5.773125 -1.155 5.54625 -1.75 5.3125 C-4.12172477 4.73494807 -4.12172477 4.73494807 -6.25 6.4375 C-7.11625 7.2109375 -7.11625 7.2109375 -8 8 C-7.875 6.25 -7.875 6.25 -7 4 C-1.66666667 0 -1.66666667 0 0 0 Z " fill="#599DB7" transform="translate(183,200)"/>
<path d="M0 0 C-2.76280538 1.84187025 -4.80707826 2.72248277 -7.9375 3.6875 C-8.79214844 3.95949219 -9.64679688 4.23148437 -10.52734375 4.51171875 C-13.10510574 5.02075548 -14.54449337 4.84888744 -17 4 C-14.92227529 3.13227971 -12.83756823 2.28126381 -10.75 1.4375 C-9.58984375 0.96183594 -8.4296875 0.48617187 -7.234375 -0.00390625 C-4.13733356 -0.95770524 -2.92678299 -1.20983356 0 0 Z " fill="#E2A949" transform="translate(206,81)"/>
<path d="M0 0 C1.79275866 3.11910856 2.34290718 5.67682428 2.625 9.25 C2.69976562 10.14203125 2.77453125 11.0340625 2.8515625 11.953125 C2.92503906 12.96632812 2.92503906 12.96632812 3 14 C2.34 14 1.68 14 1 14 C-0.38226016 11.23547967 -0.09525387 8.9538637 -0.0625 5.875 C-0.05347656 4.77929688 -0.04445312 3.68359375 -0.03515625 2.5546875 C-0.02355469 1.71164063 -0.01195312 0.86859375 0 0 Z " fill="#F0F1D3" transform="translate(145,140)"/>
<path d="M0 0 C0.33 0 0.66 0 1 0 C1 2.31 1 4.62 1 7 C-3.455 6.01 -3.455 6.01 -8 5 C-8 4.01 -8 3.02 -8 2 C-7.67 2.66 -7.34 3.32 -7 4 C-4.69 4 -2.38 4 0 4 C0 2.68 0 1.36 0 0 Z " fill="#8C61E2" transform="translate(281,211)"/>
<path d="M0 0 C0.66 0 1.32 0 2 0 C1.938125 0.9075 1.87625 1.815 1.8125 2.75 C2.01672076 6.28982642 2.64551835 7.44931155 5 10 C3.02 10.99 3.02 10.99 1 12 C0.01751476 7.9472484 -0.08159574 4.16138263 0 0 Z " fill="#6744D2" transform="translate(164,165)"/>
<path d="M0 0 C2 1 2 1 2.6328125 2.84765625 C2.79523438 3.57855469 2.95765625 4.30945313 3.125 5.0625 C3.29257813 5.79597656 3.46015625 6.52945313 3.6328125 7.28515625 C3.75398437 7.85105469 3.87515625 8.41695312 4 9 C2.68 8.67 1.36 8.34 0 8 C-0.38063221 5.6739143 -0.71269945 3.33944736 -1 1 C-0.67 0.67 -0.34 0.34 0 0 Z " fill="#5C1ADE" transform="translate(162,166)"/>
<path d="M0 0 C1.13199353 0.9080162 2.25532363 1.82683826 3.375 2.75 C4.00148437 3.26046875 4.62796875 3.7709375 5.2734375 4.296875 C7.08312318 6.08199481 8.00117455 7.67949644 9 10 C2.35384615 6.8 2.35384615 6.8 0.5625 2.75 C0.376875 1.8425 0.19125 0.935 0 0 Z " fill="#8EBDD0" transform="translate(138,209)"/>
<path d="M0 0 C3.7952131 1.49097658 5.61042731 3.75700849 8 7 C4.9168649 5.80100302 1.93720508 4.52299523 -1 3 C-0.67 2.01 -0.34 1.02 0 0 Z " fill="#71BAD6" transform="translate(128,204)"/>
<path d="M0 0 C1.134375 0.020625 2.26875 0.04125 3.4375 0.0625 C3.4375 0.7225 3.4375 1.3825 3.4375 2.0625 C1.4575 2.0625 -0.5225 2.0625 -2.5625 2.0625 C-2.5625 3.3825 -2.5625 4.7025 -2.5625 6.0625 C-1.9025 6.3925 -1.2425 6.7225 -0.5625 7.0625 C-1.5525 7.0625 -2.5425 7.0625 -3.5625 7.0625 C-3.94383299 5.0710944 -4.27575582 3.06970923 -4.5625 1.0625 C-3.5625 0.0625 -3.5625 0.0625 0 0 Z " fill="#6C31CC" transform="translate(221.5625,161.9375)"/>
<path d="M0 0 C1.9453125 -0.29296875 1.9453125 -0.29296875 4.125 -0.1875 C5.40375 -0.125625 6.6825 -0.06375 8 0 C7.01 0.495 7.01 0.495 6 1 C6 1.66 6 2.32 6 3 C3.36 3 0.72 3 -2 3 C-1.34 2.01 -0.68 1.02 0 0 Z " fill="#EEA734" transform="translate(219,76)"/>
<path d="M0 0 C-1 3 -1 3 -2.77734375 4.203125 C-3.49019531 4.54859375 -4.20304688 4.8940625 -4.9375 5.25 C-6.00291016 5.78367188 -6.00291016 5.78367188 -7.08984375 6.328125 C-8.03537109 6.66070312 -8.03537109 6.66070312 -9 7 C-9.66 6.67 -10.32 6.34 -11 6 C-9.54550599 4.9944239 -8.08627557 3.99569565 -6.625 3 C-5.40683594 2.1646875 -5.40683594 2.1646875 -4.1640625 1.3125 C-2 0 -2 0 0 0 Z " fill="#A086D3" transform="translate(172,220)"/>
<path d="M0 0 C4.08718695 -0.24042276 7.17679443 0.57741188 11 2 C10.67 2.66 10.34 3.32 10 4 C6.7 3.34 3.4 2.68 0 2 C0 1.34 0 0.68 0 0 Z " fill="#9166E7" transform="translate(260,211)"/>
<path d="M0 0 C1.43655854 -0.08131463 2.8744483 -0.13933559 4.3125 -0.1875 C5.51326172 -0.23970703 5.51326172 -0.23970703 6.73828125 -0.29296875 C9.47851584 0.06198392 10.29171079 0.89366282 12 3 C3.96428571 2.19642857 3.96428571 2.19642857 0 0 Z " fill="#FDF1D0" transform="translate(88,75)"/>
<path d="M0 0 C3.93673644 1.31224548 6.22719294 2.91910327 9 6 C8.34 6.66 7.68 7.32 7 8 C4.35247996 5.42215154 2.05567935 3.08351902 0 0 Z " fill="#FEF1C3" transform="translate(167,48)"/>
<path d="M0 0 C0.99 0.33 1.98 0.66 3 1 C0.47211993 3.79872437 -1.20411134 5.45773019 -5 6 C-3.35 4.02 -1.7 2.04 0 0 Z " fill="#6FB8D4" transform="translate(179,204)"/>
<path d="M0 0 C0.66 0 1.32 0 2 0 C2.1546875 1.175625 2.1546875 1.175625 2.3125 2.375 C2.77595022 5.33045181 2.77595022 5.33045181 6 7 C1.25 6.25 1.25 6.25 -1 4 C-0.625 1.875 -0.625 1.875 0 0 Z " fill="#36B8D0" transform="translate(117,164)"/>
<path d="M0 0 C2.64 0.66 5.28 1.32 8 2 C4.77208445 4.1519437 3.71599191 4.20086443 0 4 C0 2.68 0 1.36 0 0 Z " fill="#8759E3" transform="translate(35,211)"/>
<path d="M0 0 C-1.29299694 2.88437779 -2.65941363 4.87219421 -5 7 C-5.1875 4.625 -5.1875 4.625 -5 2 C-2 0 -2 0 0 0 Z " fill="#FEF6DC" transform="translate(181,45)"/>
</svg>
